<?xml version="1.0" standalone="no"?>
<!DOCTYPE svg PUBLIC "-//W3C//DTD SVG 20010904//EN"
 "http://www.w3.org/TR/2001/REC-SVG-20010904/DTD/svg10.dtd">
<svg version="1.0" xmlns="http://www.w3.org/2000/svg"
 width="630.000000pt" height="630.000000pt" viewBox="0 0 630.000000 630.000000"
 preserveAspectRatio="xMidYMid meet">
<metadata>
Created by potrace 1.16, written by Peter Selinger 2001-2019
</metadata>
<g transform="translate(0.000000,630.000000) scale(0.100000,-0.100000)"
fill="#000000" stroke="none">
<path d="M3855 5422 c-11 -2 -78 -23 -150 -47 -71 -23 -191 -61 -265 -85 -74
-23 -143 -46 -152 -51 -10 -5 -29 -9 -42 -9 -28 0 -35 -8 -42 -47 -3 -15 -16
-51 -30 -80 -13 -30 -24 -58 -24 -63 0 -6 -5 -10 -12 -10 -6 0 -9 -3 -5 -6 7
-8 -41 -106 -57 -116 -6 -4 -7 -8 -3 -8 4 0 -4 -21 -19 -46 -27 -46 -27 -47
-8 -61 11 -8 29 -11 44 -7 14 3 34 8 45 10 11 1 49 10 85 19 36 9 72 17 80 19
9 1 20 5 26 8 6 4 21 9 35 12 48 10 64 14 92 25 15 6 27 8 27 5 0 -4 6 -1 14
5 8 6 18 11 22 10 5 -1 23 3 39 10 200 78 184 61 291 310 35 82 64 160 64 174
0 26 -19 36 -55 29z m35 -35 c0 -19 -27 -90 -79 -212 -23 -53 -76 -152 -90
-169 -23 -27 -93 -56 -261 -109 -150 -48 -274 -80 -347 -92 -33 -5 -44 -3 -48
7 -3 8 25 80 63 159 39 79 79 164 90 189 l20 45 173 57 c96 32 233 77 304 101
156 53 175 56 175 24z"/>
<path d="M4016 5358 c-12 -29 -35 -80 -50 -113 -16 -33 -35 -76 -43 -95 -8
-19 -23 -51 -32 -70 -22 -43 -35 -89 -32 -112 1 -10 -3 -18 -9 -18 -6 0 -2
-13 9 -29 12 -16 21 -33 21 -37 0 -4 9 -17 19 -28 11 -12 26 -32 33 -46 7 -14
29 -49 48 -79 19 -29 33 -54 31 -55 -3 0 7 -14 22 -30 15 -16 24 -32 22 -36
-3 -4 2 -10 10 -14 8 -3 15 -12 15 -19 0 -8 7 -20 15 -27 8 -7 13 -16 10 -20
-3 -4 1 -10 9 -13 12 -5 76 -91 76 -103 0 -3 15 -22 34 -42 55 -58 65 -47 159
173 89 211 98 253 71 311 -10 21 -20 41 -23 44 -8 7 -30 41 -38 60 -4 8 -9 17
-13 20 -6 5 -76 108 -95 141 -19 34 -165 244 -184 267 -33 38 -58 29 -85 -30z
m182 -155 c122 -181 243 -377 249 -404 4 -19 -5 -55 -27 -111 -35 -88 -65
-125 -88 -106 -10 8 -11 7 -6 -7 5 -11 4 -16 -3 -12 -17 11 -83 -74 -83 -108
0 -8 -5 -15 -11 -15 -8 0 -8 -5 1 -15 7 -8 9 -15 4 -15 -23 1 -345 495 -344
529 0 3 5 -1 10 -9 9 -13 14 -11 34 13 23 29 24 37 15 187 -1 19 88 209 108
232 18 20 24 12 141 -159z"/>
<path d="M3020 5153 c-49 -9 -533 -163 -574 -183 -34 -16 -47 -31 -70 -80 -16
-33 -33 -60 -37 -60 -5 0 -8 -3 -7 -7 2 -5 -19 -51 -46 -103 -27 -52 -49 -96
-48 -98 2 -1 -4 -15 -12 -30 -20 -41 -8 -58 39 -55 63 4 69 5 80 13 9 7 70 22
100 25 12 1 90 24 125 36 14 5 34 11 45 14 48 11 199 65 221 79 12 9 38 44 58
78 67 122 175 384 155 377 -2 -1 -15 -4 -29 -6z m10 -27 c0 -40 -159 -369
-193 -399 -31 -28 -61 -39 -237 -90 -345 -99 -368 -103 -362 -60 3 24 143 300
174 345 21 30 68 50 258 108 69 22 175 55 235 74 128 41 125 40 125 22z"/>
<path d="M2185 4905 c-38 -13 -163 -53 -276 -89 l-207 -66 -43 -67 c-24 -38
-49 -74 -56 -81 -7 -7 -13 -18 -13 -23 0 -8 -55 -96 -79 -125 -15 -18 -40 -78
-45 -106 -6 -36 7 -38 79 -17 32 10 75 21 93 24 19 3 37 7 41 10 4 2 18 6 32
9 135 30 226 54 249 66 9 4 30 11 48 14 40 9 92 68 138 156 36 70 68 126 116
204 16 27 32 64 35 83 5 30 3 33 -18 32 -13 0 -55 -11 -94 -24z m95 -8 c0 -7
-12 -35 -26 -63 -28 -53 -31 -58 -87 -152 -20 -35 -37 -65 -37 -67 0 -15 -74
-117 -93 -127 -32 -18 -118 -46 -190 -63 -34 -8 -93 -24 -132 -35 -73 -21
-201 -50 -222 -50 -33 0 -12 40 153 297 29 44 63 88 76 97 13 9 68 30 123 47
55 17 109 34 120 39 11 4 54 18 95 30 41 12 100 30 130 40 67 22 90 24 90 7z"/>
<path d="M3565 4823 c-34 -8 -559 -170 -585 -181 -32 -13 -67 -46 -75 -72 -3
-11 -10 -20 -14 -20 -4 0 -8 -6 -8 -12 0 -7 -29 -71 -64 -143 -34 -71 -63
-132 -63 -135 -3 -16 -30 -70 -35 -70 -4 0 -8 -16 -9 -35 -2 -32 0 -35 25 -35
15 0 75 12 133 26 58 15 113 26 124 26 10 -1 29 6 42 15 13 8 24 13 24 10 0
-3 15 0 34 8 18 8 36 11 39 8 4 -3 12 -1 19 5 7 5 24 12 38 14 14 1 27 5 30 8
3 3 34 14 70 24 80 21 137 57 171 105 49 68 187 430 173 452 -5 9 -34 10 -69
2z m52 -36 c-6 -39 -84 -242 -130 -341 -34 -72 -84 -126 -140 -150 -19 -7 -91
-30 -160 -50 -289 -83 -383 -106 -428 -106 -44 0 -44 -4 7 108 88 194 177 360
197 370 26 13 194 69 332 111 243 73 301 90 314 90 10 1 12 -8 8 -32z"/>
<path d="M3783 4823 c-7 -2 -13 -12 -13 -21 0 -9 -9 -32 -20 -49 -11 -18 -17
-33 -15 -33 3 0 -4 -18 -15 -40 -35 -69 -141 -340 -147 -376 -4 -24 -1 -40 11
-53 9 -9 13 -21 9 -26 -5 -4 -2 -5 5 -1 7 4 12 1 12 -7 0 -8 7 -20 15 -27 9
-7 13 -15 10 -18 -3 -3 4 -12 15 -19 11 -8 18 -18 15 -23 -3 -4 -1 -10 4 -12
12 -4 151 -186 154 -201 1 -6 12 -20 25 -31 13 -12 24 -31 25 -44 1 -12 9 -25
19 -28 10 -3 18 -12 18 -20 0 -8 4 -14 10 -14 5 0 9 -3 8 -7 -1 -5 18 -29 43
-56 l46 -47 27 25 c29 27 48 67 133 275 38 92 57 154 60 195 l5 60 -137 205
c-76 113 -141 207 -144 210 -4 3 -27 34 -51 70 -74 109 -94 127 -127 113z
m102 -120 c33 -47 65 -91 70 -97 6 -6 30 -40 54 -76 24 -36 73 -107 107 -157
81 -119 104 -164 104 -207 0 -33 -75 -232 -145 -383 -42 -91 -55 -93 -109 -20
-23 30 -25 36 -10 30 18 -7 18 -6 1 20 -9 14 -17 33 -17 41 0 8 -8 21 -19 28
-18 13 -21 18 -21 37 0 9 -37 24 -56 22 -6 -1 -25 20 -43 46 -17 27 -50 73
-72 103 -83 113 -129 189 -129 213 0 26 130 357 174 445 15 31 31 49 39 46 6
-2 39 -43 72 -91z"/>
<path d="M2435 4496 c-154 -45 -289 -88 -300 -95 -30 -19 -81 -103 -208 -341
-22 -41 -50 -94 -63 -118 l-24 -43 32 -14 c20 -8 37 -10 44 -4 6 5 29 10 51
12 22 2 45 7 50 10 6 4 25 7 44 9 19 1 39 5 44 8 6 4 26 10 45 14 94 17 310
74 353 93 37 16 86 74 106 125 5 13 20 48 34 78 45 98 134 304 141 328 7 20 4
22 -31 21 -21 -1 -164 -38 -318 -83z m330 65 c3 -5 -8 -39 -25 -76 -16 -36
-30 -68 -30 -71 0 -6 -64 -142 -117 -249 -39 -79 -56 -101 -95 -121 -53 -28
-214 -70 -533 -139 -86 -18 -95 -19 -95 -1 0 27 194 389 242 450 28 36 53 47
258 107 261 77 360 105 382 108 4 1 9 -3 13 -8z"/>
<path d="M1940 4386 c0 -19 -22 -35 -57 -42 -26 -5 -32 -2 -38 15 -8 25 -25
28 -25 4 0 -10 -4 -24 -9 -31 -4 -7 -97 -38 -205 -68 -109 -30 -208 -60 -221
-67 -20 -10 -49 -43 -92 -103 -13 -18 -118 -198 -166 -287 -16 -29 -36 -63
-45 -77 -30 -46 -16 -75 31 -64 16 3 37 8 46 9 9 2 16 4 16 5 0 1 23 4 50 6
28 3 68 14 90 24 22 11 78 28 125 40 142 35 193 51 228 72 37 23 97 111 159
233 22 44 49 96 60 115 47 86 83 181 77 205 -7 27 -24 34 -24 11z m0 -67 c0
-15 -133 -273 -142 -277 -5 -2 -8 -7 -8 -12 0 -16 -74 -135 -104 -168 -17 -19
-42 -39 -56 -44 -28 -11 -306 -84 -447 -117 -21 -4 -50 -12 -64 -15 -15 -4
-29 -4 -32 1 -4 7 28 69 103 198 13 22 28 49 34 60 42 75 104 175 128 205 29
35 59 48 218 91 41 11 100 27 130 36 30 8 66 17 79 19 14 3 29 8 35 12 11 6
73 18 109 21 9 0 17 -4 17 -10z"/>
<path d="M3250 4156 c-41 -13 -129 -38 -195 -56 -255 -69 -302 -82 -363 -102
l-63 -20 -93 -191 c-51 -106 -99 -207 -106 -224 -7 -18 -16 -33 -20 -33 -3 0
-7 -6 -7 -12 0 -7 -8 -30 -17 -51 -15 -33 -15 -38 -1 -43 25 -10 134 7 290 45
22 6 42 11 45 12 6 2 4 1 118 29 51 12 98 23 105 24 7 1 26 6 42 12 17 6 55
19 85 28 91 29 98 35 136 115 38 81 164 425 164 449 0 14 -28 42 -40 41 -3 0
-39 -11 -80 -23z m103 -8 c10 -31 -165 -481 -199 -513 -33 -31 -244 -94 -544
-164 -154 -36 -220 -45 -220 -33 0 19 249 532 258 532 1 0 58 16 125 36 67 20
185 53 262 75 196 54 217 60 245 69 38 13 68 11 73 -2z"/>
<path d="M3013 3999 c-49 -24 -83 -72 -83 -117 0 -35 24 -56 77 -67 17 -3 36
-12 41 -18 16 -19 -4 -53 -39 -67 -28 -12 -36 -11 -62 3 -28 17 -31 16 -63 -4
-39 -24 -40 -26 -19 -56 22 -32 77 -39 139 -20 91 29 153 122 126 188 -10 23
-23 32 -66 45 -40 11 -54 20 -54 33 0 29 25 43 62 36 26 -5 38 -2 52 14 43 47
-34 68 -111 30z"/>
<path d="M2854 3973 c-18 -3 -31 -30 -71 -141 -37 -101 -57 -142 -76 -156 -26
-19 -27 -19 -46 -2 -19 18 -21 17 -56 -4 -19 -12 -35 -30 -35 -40 0 -83 161
-51 219 44 17 26 111 285 111 303 0 3 -16 2 -46 -4z"/>
<path d="M4657 4046 c-179 -181 -381 -397 -393 -419 -7 -12 -10 -28 -7 -36 13
-39 35 -81 43 -81 5 0 14 -16 20 -35 6 -19 16 -35 21 -35 5 0 21 -19 35 -42
15 -24 33 -47 40 -51 8 -4 14 -12 14 -17 0 -6 8 -18 18 -28 26 -28 47 -63 45
-73 -2 -5 5 -9 14 -9 9 0 13 -3 10 -7 -4 -3 2 -13 13 -20 11 -8 18 -19 15 -24
-4 -5 1 -12 9 -15 9 -3 16 -12 16 -18 0 -7 14 -22 30 -35 17 -12 28 -26 26
-30 -3 -4 5 -17 18 -28 36 -32 67 -19 133 55 32 36 117 130 188 207 229 248
227 245 222 285 -3 19 -24 70 -48 113 -24 43 -53 95 -64 115 -11 20 -26 41
-32 45 -7 4 -13 15 -13 22 0 8 -4 15 -8 15 -4 0 -41 51 -82 113 -127 191 -128
191 -283 33z m173 72 c33 -35 120 -169 120 -184 0 -8 -5 -14 -11 -14 -5 0 -8
-4 -5 -9 3 -5 -2 -8 -11 -7 -9 0 -27 -14 -40 -33 -46 -68 -19 -187 55 -239 36
-26 133 -38 164 -20 12 7 26 17 29 21 7 10 24 -11 34 -42 5 -16 4 -21 -4 -17
-6 4 -9 2 -6 -6 5 -13 -44 -71 -234 -278 -176 -191 -215 -230 -234 -230 -23 0
-88 70 -82 87 2 7 -1 12 -8 10 -7 -1 -15 19 -21 51 -6 38 -13 52 -22 48 -8 -3
-14 1 -14 10 0 8 -12 20 -27 26 -16 7 -38 24 -51 38 -44 47 -162 218 -173 249
-10 27 -8 34 15 61 83 99 479 500 493 500 7 0 22 -10 33 -22z m200 -295 c5 -7
10 -15 10 -18 0 -3 9 -15 20 -27 43 -46 9 -100 -45 -72 -23 12 -26 12 -16 0
19 -23 49 -25 75 -5 13 10 26 15 30 12 15 -15 3 -31 -33 -43 -48 -16 -96 -1
-105 33 -10 39 -6 75 10 92 11 10 15 27 12 52 l-4 36 18 -24 c10 -13 22 -29
28 -36z"/>
<path d="M3483 4138 c-13 -18 -63 -120 -63 -130 0 -8 -18 -50 -61 -147 -26
-58 -100 -252 -104 -271 -1 -8 4 -27 11 -41 7 -15 10 -29 7 -33 -4 -3 -1 -6 5
-6 7 0 12 -4 12 -9 0 -6 14 -25 30 -43 17 -18 30 -36 30 -41 0 -4 11 -20 24
-34 14 -15 23 -30 20 -34 -2 -5 5 -13 16 -19 11 -6 18 -15 15 -19 -3 -5 2 -11
10 -15 8 -3 15 -10 15 -16 0 -5 14 -24 30 -42 17 -17 33 -42 36 -55 4 -13 14
-28 24 -33 9 -5 25 -25 34 -45 9 -19 21 -35 26 -35 6 0 10 -6 10 -12 0 -7 12
-24 25 -37 14 -13 25 -27 25 -32 0 -5 7 -9 16 -9 8 0 12 -4 9 -10 -3 -5 3 -10
14 -10 20 0 51 24 51 40 0 5 20 51 44 102 192 409 191 406 132 495 -18 28 -51
80 -72 115 -21 34 -41 65 -44 68 -16 16 -123 155 -164 215 -104 149 -136 177
-163 143z m110 -109 l75 -102 -24 -23 c-75 -76 -48 -230 50 -281 33 -17 143
-26 151 -13 14 23 45 8 70 -33 39 -67 37 -74 -65 -302 -68 -150 -130 -274
-141 -280 -15 -10 -72 53 -65 72 3 7 0 12 -6 10 -6 -1 -23 14 -37 34 -14 20
-53 74 -86 119 -146 200 -235 335 -235 354 0 43 212 546 230 546 5 0 42 -46
83 -101z"/>
<path d="M2235 3871 c-310 -73 -495 -126 -495 -140 0 -4 -8 -16 -17 -27 -10
-11 -19 -26 -21 -34 -6 -27 -66 -140 -75 -140 -4 0 -5 -5 -2 -10 4 -6 2 -17
-4 -24 -6 -7 -39 -73 -74 -147 -53 -110 -62 -139 -55 -159 5 -14 12 -20 16
-14 6 9 22 12 75 15 9 0 17 3 17 7 0 4 10 8 23 8 12 1 40 7 62 12 22 6 54 13
70 16 17 3 45 10 63 15 18 5 33 10 35 10 4 -1 63 13 167 38 183 45 188 50 296
279 129 273 145 326 99 331 -11 1 -92 -15 -180 -36z m195 5 c0 -32 -171 -397
-220 -468 -37 -56 -86 -74 -340 -132 -36 -8 -103 -24 -150 -35 -144 -34 -209
-45 -216 -38 -7 7 41 112 171 371 91 181 69 164 285 216 19 5 62 15 95 24 33
8 101 25 150 36 50 12 104 25 120 29 50 15 105 13 105 -3z"/>
<path d="M1495 3679 c-162 -37 -481 -136 -504 -155 -21 -18 -95 -133 -204
-319 -7 -11 -20 -32 -30 -48 -11 -15 -32 -53 -49 -84 -26 -48 -28 -58 -15 -70
12 -12 22 -12 58 -2 24 6 51 12 59 13 8 1 29 6 45 10 17 4 101 26 187 47 239
59 277 77 314 144 147 266 226 420 227 442 2 23 -2 28 -23 30 -14 1 -43 -3
-65 -8z m75 -24 c0 -18 -81 -172 -194 -371 -79 -139 -73 -135 -297 -193 -225
-57 -359 -85 -370 -74 -9 9 34 87 180 327 89 146 126 190 163 199 20 4 329 91
413 116 51 15 105 13 105 -4z"/>
<path d="M2925 3440 c-88 -22 -209 -51 -270 -65 -275 -64 -277 -65 -265 -121
4 -19 20 -50 35 -69 14 -19 23 -35 20 -35 -4 0 0 -7 7 -15 31 -34 36 -43 31
-49 -4 -3 1 -6 10 -6 10 0 17 -4 17 -8 0 -9 22 -39 63 -85 15 -17 30 -39 32
-48 3 -10 17 -24 30 -33 14 -9 25 -21 25 -27 0 -6 19 -31 43 -55 23 -25 47
-54 52 -65 6 -11 21 -26 33 -35 12 -8 22 -22 22 -30 0 -8 3 -14 8 -15 4 0 28
-2 53 -3 26 -2 52 -6 58 -11 7 -4 20 0 29 8 15 13 57 24 125 31 12 2 38 8 57
14 19 6 49 13 65 15 17 2 37 6 45 10 16 6 144 33 200 42 19 3 52 10 73 16 34
9 37 12 37 47 -1 31 -18 61 -110 187 -60 83 -151 210 -202 282 -63 90 -103
138 -125 148 -17 8 -33 15 -35 14 -1 0 -75 -18 -163 -39z"/>
<path d="M5240 3439 c-49 -42 -42 -35 -128 -126 -42 -45 -127 -135 -188 -200
-154 -163 -167 -180 -166 -211 3 -42 7 -59 20 -74 6 -8 8 -18 4 -22 -4 -4 -2
-6 3 -4 6 2 11 -1 13 -7 2 -5 11 -18 19 -27 9 -10 12 -18 8 -18 -5 0 1 -9 13
-20 12 -12 22 -25 22 -31 0 -5 9 -19 20 -31 11 -12 32 -40 47 -62 15 -23 32
-44 38 -48 6 -4 6 -8 1 -8 -6 0 2 -13 17 -28 15 -16 24 -31 20 -35 -3 -4 -1
-7 4 -7 6 0 34 -29 63 -65 77 -99 90 -94 269 114 91 106 264 291 273 291 4 0
7 3 6 8 -2 4 8 18 21 31 43 43 33 65 -186 401 -52 80 -105 160 -117 177 -26
41 -51 41 -96 2z m159 -138 c55 -84 91 -149 91 -164 0 -52 51 -132 83 -132 17
0 59 -82 53 -103 -4 -10 -23 -36 -44 -59 -20 -22 -104 -117 -187 -210 -132
-148 -225 -243 -202 -206 54 87 1 236 -92 262 -9 2 -46 5 -82 5 -49 1 -65 -2
-62 -11 3 -7 0 -13 -6 -13 -6 0 -11 6 -12 13 0 6 -4 4 -8 -6 -6 -18 -7 -18
-23 0 -36 40 -128 197 -128 219 0 21 86 131 137 175 10 9 65 67 123 130 170
184 238 249 253 243 8 -3 55 -67 106 -143z m-328 -671 c14 -8 19 -21 19 -51 0
-26 5 -42 15 -45 19 -8 20 -72 1 -96 -12 -16 -14 -15 -34 12 -12 16 -22 34
-22 40 0 6 -7 13 -15 16 -24 9 -18 24 10 24 29 0 49 -31 39 -62 -4 -14 -2 -18
5 -14 18 11 13 51 -9 71 -12 11 -29 16 -45 13 -14 -3 -30 1 -36 8 -18 21 -14
63 7 79 23 17 39 18 65 5z"/>
<path d="M4054 3438 c-44 -34 -144 -136 -144 -148 0 -6 -9 -29 -19 -53 -11
-23 -25 -60 -32 -82 -7 -22 -20 -48 -28 -57 -8 -10 -10 -18 -6 -18 5 0 4 -5
-3 -12 -7 -7 -12 -20 -12 -30 0 -51 -70 -166 -153 -250 -20 -21 -26 -86 -9
-97 6 -3 22 -23 36 -44 32 -46 43 -60 79 -96 15 -16 27 -33 27 -40 0 -6 18
-30 41 -52 22 -21 37 -44 34 -49 -3 -6 0 -10 8 -10 8 0 23 -12 32 -27 24 -38
66 -72 88 -73 10 0 28 10 40 23 43 45 344 363 405 428 34 36 69 82 77 103 16
37 15 40 -9 90 -26 51 -258 383 -330 470 -43 53 -76 60 -122 24z m92 -30 c102
-109 130 -170 97 -206 -31 -33 -2 -143 49 -190 26 -24 112 -55 122 -45 3 4 6
1 6 -5 0 -7 5 -12 11 -12 5 0 8 4 5 9 -3 5 1 11 9 15 20 7 55 -45 55 -84 0
-35 -23 -66 -149 -200 -50 -53 -62 -62 -71 -50 -8 12 -10 11 -8 -6 3 -18 -94
-132 -244 -286 -27 -27 -53 -22 -87 17 -30 34 -32 59 -6 69 21 8 28 80 14 137
-13 51 -62 107 -94 110 -19 2 -25 4 -48 14 -23 10 -91 -1 -95 -15 -6 -17 -52
30 -52 52 0 10 25 48 56 85 54 64 86 122 125 228 10 28 23 49 29 47 6 -1 9 2
5 8 -16 27 70 213 121 259 37 35 103 81 113 81 4 0 21 -15 37 -32z"/>
<path d="M2021 3199 c-41 -10 -97 -20 -125 -23 -28 -2 -69 -11 -91 -19 -22 -8
-92 -26 -155 -41 -63 -15 -120 -30 -127 -34 -13 -8 -26 -62 -14 -62 4 0 23
-21 41 -47 19 -27 39 -51 44 -55 6 -4 7 -8 2 -8 -5 0 11 -19 35 -42 47 -46
115 -125 139 -164 8 -13 18 -24 21 -24 4 0 26 -26 50 -57 24 -32 54 -69 66
-82 13 -13 21 -26 18 -30 -16 -26 88 -33 185 -13 30 7 69 14 85 16 17 2 37 6
45 9 8 3 49 12 90 21 300 61 330 71 330 102 0 29 -9 41 -179 254 -145 182
-227 278 -255 302 -27 23 -107 22 -205 -3z"/>
<path d="M990 2981 c-146 -37 -275 -72 -287 -79 -18 -10 -20 -17 -13 -41 4
-16 6 -32 3 -34 -2 -3 5 -10 16 -17 12 -6 19 -15 16 -21 -4 -5 -2 -9 3 -9 12
0 158 -181 154 -192 -1 -4 3 -8 9 -8 5 0 7 -4 4 -10 -3 -5 0 -10 9 -10 8 0 23
-15 35 -32 11 -18 29 -39 40 -46 12 -7 21 -17 21 -23 0 -6 11 -20 25 -31 14
-11 25 -26 25 -34 0 -8 5 -12 10 -9 6 3 10 -1 10 -9 0 -8 9 -20 20 -26 11 -6
18 -15 15 -20 -13 -21 59 -24 150 -7 179 35 239 33 256 -9 5 -14 23 -37 39
-51 17 -13 28 -29 24 -34 -3 -5 -1 -9 5 -9 14 0 61 -52 61 -67 0 -7 3 -13 8
-13 4 0 16 -15 26 -34 10 -19 34 -46 52 -61 19 -16 46 -47 60 -71 14 -24 29
-44 34 -44 4 0 6 -24 3 -52 -2 -29 0 -58 5 -65 4 -7 32 -14 61 -16 53 -4 88
-27 75 -48 -3 -5 3 -9 12 -9 10 0 15 -2 12 -5 -3 -3 6 -18 21 -34 36 -38 62
-71 55 -71 -3 0 15 -18 40 -39 25 -21 42 -42 38 -47 -4 -4 -2 -4 5 -1 15 9 45
-2 37 -14 -3 -5 2 -6 10 -3 9 3 16 1 16 -5 0 -6 9 -11 19 -11 11 0 26 -7 34
-15 8 -8 16 -12 19 -10 2 2 39 -14 83 -35 43 -22 80 -38 83 -36 2 3 22 -6 43
-20 21 -13 46 -24 54 -24 9 0 46 -16 82 -35 36 -19 72 -35 80 -35 7 0 13 -5
13 -11 0 -5 4 -8 9 -5 5 4 11 1 13 -4 2 -6 10 -12 19 -13 9 -2 28 -10 42 -20
15 -9 32 -17 38 -17 7 0 20 -7 29 -15 10 -9 27 -18 40 -20 12 -2 37 -13 56
-24 27 -16 39 -18 58 -10 28 13 64 -3 111 -48 32 -30 147 -93 170 -93 8 0 18
-7 23 -17 5 -9 16 -14 25 -10 8 3 24 -3 35 -14 12 -10 28 -19 37 -19 15 0 106
-39 115 -50 22 -25 113 -40 125 -20 3 6 1 10 -4 10 -6 0 -11 6 -11 13 0 8 -10
22 -21 33 -30 27 -204 234 -272 324 -73 96 -96 120 -129 132 -16 5 -25 14 -22
19 3 5 -9 9 -25 9 -17 0 -31 4 -31 9 0 5 -13 11 -28 14 -35 7 -39 37 -5 37 54
0 40 47 -44 139 -29 32 -49 61 -46 65 3 3 1 6 -5 6 -6 0 -52 48 -102 108 -161
187 -232 263 -270 287 -20 13 -106 51 -191 85 -85 34 -158 66 -164 71 -5 5
-34 9 -65 9 -45 0 -60 5 -82 25 -54 50 -224 125 -284 125 -57 0 -80 15 -87 55
-7 41 -75 140 -230 333 -203 254 -201 252 -251 251 -22 -1 -160 -31 -306 -68z
m306 -117 c22 -33 19 -35 -115 -70 -137 -35 -137 -35 -114 -63 20 -25 8 -26
193 23 52 14 96 26 97 26 7 0 143 -192 143 -203 0 -6 -32 -29 -71 -51 -67 -36
-78 -39 -162 -41 l-91 -2 -43 46 c-23 25 -43 51 -43 58 0 7 16 15 36 19 28 5
40 2 58 -15 30 -28 120 -27 167 1 l30 18 -31 39 -30 39 -132 -34 c-107 -28
-134 -33 -143 -22 -47 50 -136 160 -133 163 2 3 65 21 139 41 74 19 145 39
159 44 45 15 69 11 86 -16z m1382 -1160 c10 -13 50 -34 66 -34 8 0 27 -6 43
-14 15 -8 39 -19 53 -25 14 -6 40 -20 58 -31 18 -11 34 -20 37 -20 3 0 10 0
16 0 5 0 8 -4 5 -9 -4 -5 0 -12 6 -14 10 -4 9 -8 -2 -16 -20 -14 -60 -14 -60
1 0 6 -3 9 -6 6 -3 -4 -20 -2 -37 3 -18 5 -49 11 -70 13 -25 3 -48 14 -67 33
-40 39 -49 46 -97 69 -23 12 -40 24 -36 28 3 3 -8 6 -26 6 -21 0 -30 4 -25 11
8 13 132 8 142 -7z"/>
<path d="M4449 2598 c-74 -78 -163 -173 -199 -210 -183 -193 -184 -196 -175
-237 4 -17 6 -33 6 -36 0 -2 11 -16 25 -30 14 -14 23 -29 20 -34 -3 -5 1 -11
9 -15 8 -3 15 -12 15 -20 0 -8 6 -19 14 -23 8 -4 26 -28 40 -53 14 -25 26 -41
26 -35 0 5 16 -12 35 -40 20 -27 39 -52 43 -55 5 -3 21 -23 38 -44 35 -48 104
-120 104 -111 0 4 6 2 14 -4 24 -20 64 11 200 160 28 30 84 90 126 134 166
175 220 239 220 259 0 22 -12 41 -132 208 -215 297 -240 328 -273 328 -15 0
-64 -44 -156 -142z m223 57 c99 -129 285 -392 303 -426 13 -24 11 -29 -27 -75
-22 -27 -75 -85 -117 -129 -42 -44 -130 -138 -195 -208 -66 -70 -126 -125
-132 -123 -8 3 -11 -1 -7 -10 10 -26 -32 -15 -62 16 -16 17 -23 30 -17 30 7 0
12 -4 12 -9 0 -12 53 -9 63 4 4 6 11 5 18 -5 9 -13 10 -12 5 3 -4 13 4 28 25
48 17 16 28 29 25 29 -4 0 0 13 9 30 8 16 15 45 15 65 0 39 -26 105 -41 105
-5 0 -9 6 -9 13 -1 18 -66 47 -120 54 -63 7 -146 -33 -163 -80 -6 -18 -10 -35
-9 -39 5 -20 -11 -3 -56 56 -67 89 -96 147 -89 177 4 13 33 51 65 84 32 33
110 116 172 185 180 197 248 262 273 258 12 -2 38 -25 59 -53z m-228 -661 c9
-8 16 -29 16 -45 0 -17 7 -37 15 -45 9 -9 15 -33 15 -57 0 -36 -4 -44 -31 -59
-43 -25 -76 -22 -104 8 -29 31 -33 80 -10 110 8 10 15 29 15 42 0 56 48 82 84
46z"/>
<path d="M3329 2665 c-70 -56 -460 -448 -497 -500 -38 -53 -32 -105 17 -149
11 -10 18 -23 14 -29 -3 -5 -2 -7 4 -4 6 4 25 -15 44 -41 18 -26 51 -68 74
-94 22 -27 39 -51 39 -55 -1 -5 7 -14 18 -21 10 -7 16 -18 13 -23 -4 -5 -1 -9
4 -9 13 0 51 -36 51 -48 0 -4 16 -20 35 -36 19 -16 35 -35 35 -43 0 -7 5 -13
11 -13 5 0 8 -4 5 -8 -9 -16 62 -42 86 -33 26 11 382 367 481 483 73 85 79
104 46 157 -66 109 -355 463 -403 494 -22 15 -26 13 -77 -28z m118 -43 c15
-20 30 -39 34 -42 5 -5 114 -137 127 -155 22 -30 128 -162 139 -173 7 -7 25
-34 39 -58 19 -33 24 -50 18 -64 -15 -33 -143 -171 -374 -404 -96 -97 -152
-146 -166 -146 -13 0 -40 22 -73 59 -50 58 -62 81 -41 81 6 0 10 -8 10 -17 0
-11 3 -14 8 -7 4 6 28 20 53 33 28 13 58 38 75 62 l27 40 -48 49 -49 50 31 32
c46 49 30 69 -18 22 -36 -35 -50 -64 -31 -64 16 0 28 -55 20 -87 -24 -92 -158
-78 -158 16 0 20 7 46 15 57 8 10 15 33 15 51 0 25 7 35 34 51 19 11 39 29 45
40 9 18 7 20 -24 24 -19 2 -35 0 -35 -5 0 -5 -13 -7 -30 -4 -21 5 -28 3 -24
-6 2 -7 -6 -17 -18 -22 -22 -10 -79 -85 -73 -95 2 -3 0 -11 -4 -18 -10 -16
-141 154 -141 184 0 16 40 66 134 166 153 162 328 336 382 379 42 34 58 29
101 -29z"/>
<path d="M3789 1911 c-147 -152 -349 -366 -384 -407 -27 -31 -49 -84 -36 -84
5 0 14 -14 21 -31 8 -17 25 -42 39 -55 14 -13 22 -24 18 -24 -4 0 12 -21 37
-47 25 -26 42 -51 39 -56 -3 -6 -1 -7 5 -3 7 4 12 3 12 -2 0 -5 16 -27 35 -48
19 -20 33 -40 30 -42 -6 -6 19 -31 27 -26 3 2 19 -16 35 -41 15 -24 34 -44 41
-45 6 0 12 -4 12 -8 0 -5 14 -22 30 -39 27 -28 34 -30 66 -23 20 5 43 18 51
30 18 26 91 106 218 239 50 52 97 102 105 111 59 65 140 147 140 142 0 -3 7 3
15 14 31 41 17 80 -73 199 -62 81 -258 320 -299 363 -30 32 -58 14 -184 -117z
m266 -15 c58 -67 130 -156 161 -197 31 -41 63 -83 72 -95 27 -33 42 -62 42
-82 0 -22 -44 -77 -155 -192 -45 -47 -126 -132 -180 -190 -171 -184 -183 -194
-204 -184 -33 16 -360 400 -383 450 -6 12 -8 34 -4 48 9 36 509 566 535 566 6
0 58 -56 116 -124z"/>
<path d="M3713 1430 c-44 -18 -101 -86 -108 -129 -8 -50 2 -116 20 -135 8 -7
11 -16 8 -20 -4 -3 1 -6 10 -6 9 0 16 -5 14 -12 -1 -7 3 -13 8 -13 6 -1 19 -5
30 -10 71 -29 85 -33 97 -31 36 5 110 51 135 84 24 32 28 46 28 104 0 76 -15
105 -81 150 -30 21 -51 27 -89 27 -27 0 -60 -4 -72 -9z m98 -60 c13 -7 19 -21
19 -44 0 -19 7 -39 15 -46 17 -14 20 -72 4 -101 -23 -45 -115 -44 -139 1 -15
27 -12 73 5 96 8 10 15 29 15 42 0 54 35 76 81 52z"/>
</g>
</svg>
